<?xml version="1.0" encoding="UTF-8"?>
<svg version="1.1" xmlns="http://www.w3.org/2000/svg" width="400" height="400">
<path d="M0 0 C12.17297704 8.63954578 17.85968074 22.77546761 22.75 36.37890625 C23.12110901 37.39544281 23.49221802 38.41197937 23.87457275 39.45932007 C25.0521846 42.68832446 26.22172861 45.92017547 27.390625 49.15234375 C28.54185785 52.31993709 29.69480832 55.48689772 30.84875488 58.65350342 C31.61494388 60.75851244 32.37886856 62.86434704 33.14050293 64.9710083 C35.12115697 70.43441252 37.14983535 75.87317055 39.25976562 81.28808594 C39.68211487 82.38083832 40.10446411 83.4735907 40.53961182 84.59945679 C41.34869693 86.68552664 42.16799843 88.76767172 42.9989624 90.84512329 C43.36056458 91.78101288 43.72216675 92.71690247 44.09472656 93.68115234 C44.57984711 94.9078212 44.57984711 94.9078212 45.07476807 96.15927124 C46.28321201 101.21652637 43.90967891 105.6714365 42.04858398 110.3371582 C41.65334534 111.3331176 41.65334534 111.3331176 41.25012207 112.34919739 C40.38301526 114.53130087 39.50991368 116.71095144 38.63671875 118.890625 C38.03242958 120.40790763 37.42851744 121.92534046 36.82496643 123.44291687 C35.23900095 127.42774677 33.64793311 131.41051994 32.05578613 135.3928833 C30.43058243 139.46055977 28.81022353 143.53016491 27.18945312 147.59960938 C24.01124299 155.57741403 20.82763872 163.55305193 17.640625 171.52734375 C16.980625 171.52734375 16.320625 171.52734375 15.640625 171.52734375 C15.39609589 170.89318542 15.15156677 170.2590271 14.89962769 169.60565186 C11.77240258 161.49591652 8.6443519 153.38649979 5.515625 145.27734375 C5.26630974 144.63115711 5.01699448 143.98497047 4.76012421 143.31920242 C-3.57824497 121.70834795 -11.94311537 100.10800322 -20.359375 78.52734375 C-23.60263573 84.76151438 -26.28222733 91.10548841 -28.84765625 97.64453125 C-29.51319771 99.32736206 -29.51319771 99.32736206 -30.19218445 101.04418945 C-31.16994741 103.51745333 -32.1464208 105.99118395 -33.12084961 108.46575928 C-34.70085975 112.47764063 -36.28638628 116.48732695 -37.87304688 120.49658203 C-38.44009438 121.92953476 -39.00714149 123.36248764 -39.57418823 124.79544067 C-40.00874643 125.89354254 -40.00874643 125.89354254 -40.45208359 127.01382828 C-41.36512553 129.32149649 -42.27772176 131.62934054 -43.19021606 133.93722534 C-50.88778682 153.40387536 -58.61413116 172.85910321 -66.34819126 192.3112812 C-69.02257734 199.03786722 -71.69443607 205.76544956 -74.36437702 212.49380112 C-76.04566264 216.72913753 -77.72914549 220.96359795 -79.41324806 225.19781494 C-80.20716765 227.19515795 -81.00019413 229.1928562 -81.79230309 231.19091797 C-82.8799748 233.93406443 -83.97082209 236.67592637 -85.0625 239.41748047 C-85.545289 240.63837781 -85.545289 240.63837781 -86.03783131 241.88393974 C-88.24527096 247.41323971 -88.24527096 247.41323971 -89.359375 248.52734375 C-91.20055529 248.62115677 -93.04535141 248.64478329 -94.88891602 248.64086914 C-96.07006485 248.64079361 -97.25121368 248.64071808 -98.46815491 248.64064026 C-99.7535466 248.63547897 -101.03893829 248.63031769 -102.36328125 248.625 C-104.3255088 248.62287758 -104.3255088 248.62287758 -106.32737732 248.62071228 C-109.81100359 248.61688785 -113.29458839 248.60705821 -116.77819824 248.5960083 C-120.33064208 248.58579257 -123.88309259 248.58121431 -127.43554688 248.57617188 C-134.41017332 248.56543587 -141.38477217 248.54836035 -148.359375 248.52734375 C-147.81865799 244.83025288 -147.12776075 241.5146943 -145.72509766 238.05224609 C-145.38174377 237.19571945 -145.03838989 236.33919281 -144.68463135 235.45671082 C-144.10984039 234.04921318 -144.10984039 234.04921318 -143.5234375 232.61328125 C-143.1096283 231.58507767 -142.69581909 230.55687408 -142.26947021 229.49751282 C-141.34423704 227.2001301 -140.41626947 224.90384731 -139.48602295 222.60848999 C-137.08887968 216.69221413 -134.70909244 210.76896911 -132.32773209 204.84632683 C-131.41600259 202.57936033 -130.50353868 200.31269031 -129.59103394 198.04603577 C-121.66875389 178.35827919 -113.83539617 158.63503094 -105.99215317 138.91569233 C-102.68420128 130.59968187 -99.37192408 122.28540334 -96.05761719 113.97192383 C-94.21007534 109.33683542 -92.36274785 104.70166165 -90.515625 100.06640625 C-90.06668129 98.93982542 -89.61773758 97.81324459 -89.15518951 96.65252495 C-84.01041103 83.73890195 -78.88790669 70.81724233 -73.82590866 57.87093925 C-72.07658605 53.40167203 -70.31687068 48.93648191 -68.55889893 44.47061157 C-67.28929365 41.2300203 -66.03752143 37.98295316 -64.78662109 34.73510742 C-58.77214051 19.33881206 -51.99140562 5.41219274 -36.84375 -2.84375 C-24.71654412 -8.09040045 -11.07028797 -6.90976584 0 0 Z " fill="#0BA5EC" transform="translate(208.359375,46.47265625)"/>
<path d="M0 0 C1.06367294 0.00222061 2.12734589 0.00444122 3.22325134 0.00672913 C5.02500572 0.00684242 5.02500572 0.00684242 6.86315918 0.00695801 C8.17042465 0.01211929 9.47769012 0.01728058 10.8245697 0.02259827 C12.16835477 0.02446253 13.51214052 0.02588639 14.85592651 0.02688599 C18.39873622 0.0307105 21.94150515 0.0405402 25.48429871 0.05158997 C29.09706572 0.06180552 32.7098393 0.06638392 36.32261658 0.07142639 C43.41573225 0.08216254 50.50882019 0.09923816 57.60191345 0.12025452 C57.02209697 3.33669055 56.26988842 6.26411962 55.05943298 9.29823303 C54.73612 10.11473831 54.41280701 10.93124359 54.07969666 11.77249146 C53.71835632 12.67229233 53.35701599 13.5720932 52.98472595 14.49916077 C52.59293152 15.48488571 52.20113708 16.47061066 51.79747009 17.48620605 C50.44467999 20.88668811 49.08573694 24.28467928 47.72691345 27.68275452 C46.73938497 30.16111717 45.75220647 32.63961653 44.76548767 35.11830139 C42.76761319 40.13562072 40.76781185 45.15216696 38.76645088 50.16809654 C34.00051922 62.11339489 29.24805606 74.06403528 24.49654007 86.01507378 C20.71335229 95.52989562 16.92843492 105.04402966 13.14374542 114.55825424 C11.74681266 118.07022671 10.35015458 121.58230832 8.95353699 125.09440613 C0.00220119 147.60214685 -8.95789101 170.10640054 -18.0248909 192.56785583 C-18.77328066 194.42220717 -19.52087951 196.27687792 -20.2676506 198.13188171 C-21.28392349 200.65511969 -22.30355903 203.17696906 -23.32435608 205.69837952 C-23.62390324 206.44345261 -23.92345039 207.1885257 -24.23207474 207.95617676 C-26.2833412 213.00550916 -26.2833412 213.00550916 -27.39808655 214.12025452 C-29.26989595 214.21411832 -31.14526715 214.23769255 -33.01942444 214.23377991 C-34.22059402 214.23370438 -35.42176361 214.23362885 -36.65933228 214.23355103 C-37.96659775 214.22838974 -39.27386322 214.22322845 -40.6207428 214.21791077 C-41.96452787 214.2160465 -43.30831362 214.21462264 -44.65209961 214.21362305 C-48.19490931 214.20979853 -51.73767825 214.19996883 -55.2804718 214.18891907 C-58.89323881 214.17870351 -62.50601239 214.17412512 -66.11878967 214.16908264 C-73.21190535 214.1583465 -80.30499329 214.14127088 -87.39808655 214.12025452 C-85.55649898 207.65862667 -83.45234659 201.40872083 -80.91908264 195.18739319 C-80.58240696 194.34993624 -80.24573128 193.51247929 -79.8988533 192.64964485 C-79.16896747 190.83547734 -78.43710766 189.02210299 -77.70346451 187.20945168 C-76.09690311 183.23973771 -74.50024854 179.26605935 -72.90270805 175.2927084 C-72.04978663 173.17173452 -71.19634923 171.05096808 -70.34242439 168.93039799 C-65.95569211 158.03449458 -61.61005775 147.12235766 -57.26934052 136.2080574 C-55.9251301 132.8283166 -54.58025658 129.44884039 -53.23518372 126.06944275 C-50.04131415 118.04492836 -46.84829063 110.02007742 -43.65534973 101.99519348 C-37.81313104 87.31196809 -31.96860405 72.62966685 -26.11891174 57.94941711 C-24.25201374 53.26419983 -22.38618317 48.57855915 -20.52101135 43.89265442 C-18.16722734 37.97974881 -15.81073776 32.06792801 -13.45232773 26.15686607 C-12.56153362 23.92299506 -11.67163376 21.68876723 -10.78265762 19.45417213 C-9.56100552 16.38381171 -8.33616532 13.31474264 -7.11048889 10.24598694 C-6.56509272 8.872077 -6.56509272 8.872077 -6.00867844 7.4704113 C-5.67725971 6.64254679 -5.34584099 5.81468227 -5.00437927 4.96173096 C-4.71652746 4.23952456 -4.42867565 3.51731817 -4.13210106 2.77322674 C-3.01048954 0.24740108 -2.87134941 0.14398677 0 0 Z " fill="#0BA5EC" transform="translate(282.39808654785156,145.87974548339844)"/>
</svg>
